{
  "accessors": [
    {
      "bufferView": 2,
      "componentType": 5126,
      "count": 25983,
      "max": [
        178.39100646972656,
        192.83770751953125,
        1055.2774658203125
      ],
      "min": [
        -178.39100646972656,
        -192.83770751953125,
        -0.17679999768733978
      ],
      "type": "VEC3"
    },
    {
      "bufferView": 2,
      "byteOffset": 311796,
      "componentType": 5126,
      "count": 25983,
      "max": [
        1.0,
        1.0,
        1.0
      ],
      "min": [
        -1.0,
        -1.0,
        -1.0
      ],
      "type": "VEC3"
    },
    {
      "bufferView": 1,
      "componentType": 5126,
      "count": 25983,
      "max": [
        178.39100646972656,
        178.39100646972656
      ],
      "min": [
        -178.39100646972656,
        -178.39100646972656
      ],
      "type": "VEC2"
    },
    {
      "bufferView": 0,
      "componentType": 5125,
      "count": 134688,
      "type": "SCALAR"
    },
    {
      "bufferView": 2,
      "byteOffset": 623592,
      "componentType": 5126,
      "count": 121,
      "max": [
        31.268800735473633,
        179.26109313964844,
        1015.6458129882813
      ],
      "min": [
        -122.81289672851563,
        -179.26100158691406,
        880.6674194335938
      ],
      "type": "VEC3"
    },
    {
      "bufferView": 2,
      "byteOffset": 625044,
      "componentType": 5126,
      "count": 121,
      "max": [
        -0.6589151620864868,
        0.0001999914093175903,
        0.7522172927856445
      ],
      "min": [
        -0.659127414226532,
        -0.0002000045933527872,
        0.7520312666893005
      ],
      "type": "VEC3"
    },
    {
      "bufferView": 1,
      "byteOffset": 207864,
      "componentType": 5126,
      "count": 121,
      "max": [
        1.0,
        0.49480000138282776
      ],
      "min": [
        -0.0,
        0.0
      ],
      "type": "VEC2"
    },
    {
      "bufferView": 0,
      "byteOffset": 538752,
      "componentType": 5125,
      "count": 600,
      "type": "SCALAR"
    },
    {
      "bufferView": 2,
      "byteOffset": 626496,
      "componentType": 5126,
      "count": 915,
      "max": [
        89.283203125,
        -32.13959884643555,
        1053.4298095703125
      ],
      "min": [
        -143.6842041015625,
        -172.7487030029297,
        864.8120727539063
      ],
      "type": "VEC3"
    },
    {
      "bufferView": 2,
      "byteOffset": 637476,
      "componentType": 5126,
      "count": 915,
      "max": [
        0.8181444406509399,
        0.8251970410346985,
        0.9992885589599609
      ],
      "min": [
        -0.9999315738677979,
        -0.8285977244377136,
        0.011700369417667389
      ],
      "type": "VEC3"
    },
    {
      "bufferView": 1,
      "byteOffset": 208832,
      "componentType": 5126,
      "count": 915,
      "max": [
        1.243899941444397,
        0.986299991607666
      ],
      "min": [
        -0.040800001472234726,
        0.5127000212669373
      ],
      "type": "VEC2"
    },
    {
      "bufferView": 0,
      "byteOffset": 541152,
      "componentType": 5125,
      "count": 4896,
      "type": "SCALAR"
    }
  ],
  "asset": {
    "extras": {
      "author": "I am Frezzy (https://sketchfab.com/cgivn)",
      "license": "CC-BY-4.0 (http://creativecommons.org/licenses/by/4.0/)",
      "source": "https://sketchfab.com/3d-models/technogym-screen-stand-e2257892c4914c77b5835cb07e2accef",
      "title": "Technogym Screen Stand"
    },
    "generator": "Sketchfab-13.55.0",
    "version": "2.0"
  },
  "bufferViews": [
    {
      "buffer": 0,
      "byteLength": 560736,
      "name": "floatBufferViews",
      "target": 34963
    },
    {
      "buffer": 0,
      "byteLength": 216152,
      "byteOffset": 560736,
      "byteStride": 8,
      "name": "floatBufferViews",
      "target": 34962
    },
    {
      "buffer": 0,
      "byteLength": 648456,
      "byteOffset": 776888,
      "byteStride": 12,
      "name": "floatBufferViews",
      "target": 34962
    }
  ],
  "buffers": [
    {
      "byteLength": 1425344,
      "uri": "scene.bin"
    }
  ],
  "images": [
    {
      "uri": "textures/Screen_Type_1_baseColor.jpeg"
    }
  ],
  "materials": [
    {
      "doubleSided": true,
      "name": "Matte_Black",
      "pbrMetallicRoughness": {
        "baseColorFactor": [
          0.0039,
          0.0039,
          0.0039,
          1.0
        ],
        "metallicFactor": 0.0,
        "roughnessFactor": 0.5443795638234326
      }
    },
    {
      "doubleSided": true,
      "emissiveFactor": [
        1.0,
        1.0,
        1.0
      ],
      "emissiveTexture": {
        "index": 0
      },
      "name": "Screen_Type_1",
      "pbrMetallicRoughness": {
        "baseColorTexture": {
          "index": 0
        },
        "metallicFactor": 0.0
      }
    },
    {
      "doubleSided": true,
      "emissiveTexture": {
        "index": 0
      },
      "name": "Screen_Type_1_Symbol",
      "pbrMetallicRoughness": {
        "baseColorTexture": {
          "index": 0
        },
        "metallicFactor": 0.0,
        "roughnessFactor": 0.2761882702880619
      }
    }
  ],
  "meshes": [
    {
      "name": "Object_0",
      "primitives": [
        {
          "attributes": {
            "NORMAL": 1,
            "POSITION": 0,
            "TEXCOORD_0": 2
          },
          "indices": 3,
          "material": 0,
          "mode": 4
        }
      ]
    },
    {
      "name": "Object_1",
      "primitives": [
        {
          "attributes": {
            "NORMAL": 5,
            "POSITION": 4,
            "TEXCOORD_0": 6
          },
          "indices": 7,
          "material": 1,
          "mode": 4
        }
      ]
    },
    {
      "name": "Object_2",
      "primitives": [
        {
          "attributes": {
            "NORMAL": 9,
            "POSITION": 8,
            "TEXCOORD_0": 10
          },
          "indices": 11,
          "material": 2,
          "mode": 4
        }
      ]
    }
  ],
  "nodes": [
    {
      "children": [
        1
      ],
      "matrix": [
        1.0,
        0.0,
        0.0,
        0.0,
        0.0,
        2.220446049250313e-16,
        -1.0,
        0.0,
        0.0,
        1.0,
        2.220446049250313e-16,
        0.0,
        0.0,
        0.0,
        0.0,
        1.0
      ],
      "name": "Sketchfab_model"
    },
    {
      "children": [
        2,
        3,
        4
      ],
      "name": "Unity Self.obj.cleaner.materialmerger.gles"
    },
    {
      "mesh": 0,
      "name": "Object_2"
    },
    {
      "mesh": 1,
      "name": "Object_3"
    },
    {
      "mesh": 2,
      "name": "Object_4"
    }
  ],
  "samplers": [
    {
      "magFilter": 9729,
      "minFilter": 9987,
      "wrapS": 10497,
      "wrapT": 10497
    }
  ],
  "scene": 0,
  "scenes": [
    {
      "name": "Sketchfab_Scene",
      "nodes": [
        0
      ]
    }
  ],
  "textures": [
    {
      "sampler": 0,
      "source": 0
    }
  ]
}
